<svg width="140" height="130" viewBox="0 0 140 130" fill="none" xmlns="http://www.w3.org/2000/svg">
<rect width="140" height="130" rx="2" fill="#FFEED8"/>
<path fill-rule="evenodd" clip-rule="evenodd" d="M70.264 32.9062H70.0146C65.8 32.9328 61.6319 33.7891 57.7483 35.4265C53.8646 37.0638 50.3415 39.4501 47.38 42.449C44.4186 45.4479 42.0768 49.0008 40.4885 52.9047C38.9001 56.8086 38.0962 60.9872 38.1227 65.2018C38.1492 69.4164 39.0056 73.5846 40.6429 77.4682C42.2803 81.3519 44.6665 84.875 47.6655 87.8364C50.6644 90.7979 54.2172 93.1396 58.1212 94.728C62.0251 96.3164 66.2037 97.1203 70.4183 97.0938C70.6372 97.0938 70.854 97.088 71.0688 97.0765C79.3936 96.8029 87.2859 93.3036 93.078 87.3179C98.8702 81.3323 102.108 73.3293 102.108 65C102.108 56.6705 98.87 48.6673 93.0776 42.6817C87.2852 36.696 79.3926 33.1968 71.0676 32.9235C70.8004 32.9095 70.5328 32.9041 70.2652 32.9075M58.5349 40.3915C54.2316 42.399 50.5299 45.4998 47.7991 49.3846C45.0683 53.2694 43.4039 57.8024 42.9719 62.5312H52.605C52.661 61.0582 52.7647 59.614 52.9161 58.1986L57.8511 58.4948C57.7011 59.8362 57.599 61.1826 57.545 62.5312H67.5311V38.4844C65.3289 39.4842 63.2416 41.6715 61.4826 45.1624C61.3682 45.3911 61.2555 45.6244 61.1444 45.8623L56.3637 44.4489C56.5908 43.9329 56.8274 43.4305 57.0734 42.9417C57.5215 42.053 58.0079 41.1988 58.5325 40.3903M67.5311 67.4688H57.545C57.8239 74.3615 59.2632 80.4297 61.4826 84.8376C63.2416 88.3297 65.3289 90.5158 67.5311 91.5156V67.4688ZM58.5325 89.6097C58.0004 88.7862 57.5134 87.9345 57.0734 87.0583C54.443 81.8332 52.8852 74.9676 52.605 67.4688H42.9695C43.4012 72.1978 45.0655 76.731 47.7963 80.6161C50.5271 84.5011 54.229 87.6021 58.5325 89.6097ZM82.6694 89.0271C86.6746 86.9177 90.089 83.8405 92.602 80.0754C95.115 76.3103 96.647 71.9767 97.0586 67.4688H88.2328C88.1779 68.9488 88.0709 70.4264 87.9118 71.8989L82.9768 71.6027C83.129 70.2638 83.234 68.8858 83.2916 67.4688H72.4686V91.8378C74.9768 91.0465 77.3727 88.7691 79.3527 84.8376C79.4588 84.6278 79.5625 84.4151 79.6637 84.1995L84.4457 85.6128C84.226 86.1066 83.9985 86.5884 83.7631 87.0583C83.4251 87.7287 83.0595 88.3855 82.6694 89.0271ZM83.2916 62.5312H72.4686V38.1622C74.9768 38.9535 77.3727 41.2309 79.3527 45.1624C81.5733 49.5715 83.0126 55.6385 83.2916 62.5312ZM88.2328 62.5312C87.9526 55.0324 86.3936 48.1668 83.7631 42.9417C83.4263 42.2706 83.0619 41.6138 82.6707 40.9729C86.6756 43.0825 90.0897 46.1597 92.6025 49.9248C95.1153 53.6899 96.6471 58.0234 97.0586 62.5312H88.2328Z" fill="#F6821F"/>
</svg>
